
<svg width="152" height="52" viewBox="0 0 152 52" fill="none" xmlns="http://www.w3.org/2000/svg">
<g clip-path="url(#clip0_9_705)">
<mask id="mask0_9_705" style="mask-type:luminance" maskUnits="userSpaceOnUse" x="0" y="0" width="152" height="52">
<path d="M152 0H0V52H152V0Z" fill="white"/>
</mask>
<g mask="url(#mask0_9_705)">
<path d="M3.1554 32.6529L5.38729 29.2117C8.08097 31.1999 11.7751 32.7294 15.7772 32.7294C20.241 32.7294 23.7043 30.5882 23.7043 26.9941C23.7043 24.0117 21.6263 22.2529 15.5463 21.2588C7.77312 20.1117 4.1559 17.3588 4.1559 12.3882C4.1559 6.72936 9.2354 2.9823 15.9311 2.9823C20.087 2.9823 23.6273 3.97642 26.9367 6.49995L24.4739 9.78818C22.0881 7.95289 19.0096 7.18818 16.162 7.18818C12.006 7.18818 8.77362 9.09995 8.77362 12.1588C8.77362 14.9882 11.0825 16.2882 16.8546 17.2823C25.1665 18.8117 28.322 21.7941 28.322 26.9941C28.322 33.2647 23.1655 37.0882 15.7772 37.0882C10.6207 37.0117 6.15691 35.1764 3.1554 32.6529Z" fill="#2D2A27"/>
</g>
<mask id="mask1_9_705" style="mask-type:luminance" maskUnits="userSpaceOnUse" x="0" y="0" width="152" height="52">
<path d="M152 0H0V52H152V0Z" fill="white"/>
</mask>
<g mask="url(#mask1_9_705)">
<path d="M33.2476 25.9235V13.2294H37.6344V25.7705C37.6344 30.2058 40.0972 32.8058 44.0992 32.8058C48.0243 32.8058 50.8719 29.6705 50.8719 25.5411V13.2294H55.2587V36.3235H51.1797C51.1797 35.0235 51.1797 33.7235 51.2567 32.4235H51.1027C49.5635 35.3294 46.6389 36.7823 43.1757 36.7823C37.1726 36.7823 33.2476 32.5 33.2476 25.9235Z" fill="#2D2A27"/>
</g>
<mask id="mask2_9_705" style="mask-type:luminance" maskUnits="userSpaceOnUse" x="0" y="0" width="152" height="52">
<path d="M152 0H0V52H152V0Z" fill="white"/>
</mask>
<g mask="url(#mask2_9_705)">
<path d="M62.6471 36.4V13.2295H66.7261C66.7261 14.5295 66.6491 15.8295 66.5722 17.5118H66.7261C68.1114 14.453 71.1899 12.7706 75.038 12.7706C81.4258 12.7706 84.8122 16.6706 84.8122 23.3236V36.3236H80.4253V23.7059C80.4253 19.4236 78.4243 16.7471 74.1914 16.7471C70.0354 16.7471 66.957 19.8824 66.957 24.0883V36.4H62.6471Z" fill="#2D2A27"/>
</g>
<mask id="mask3_9_705" style="mask-type:luminance" maskUnits="userSpaceOnUse" x="0" y="0" width="152" height="52">
<path d="M152 0H0V52H152V0Z" fill="white"/>
</mask>
<g mask="url(#mask3_9_705)">
<path d="M91.8157 36.4V13.2295H95.8947C95.8947 14.5295 95.8177 15.8295 95.7407 17.5118H95.8947C97.28 14.453 100.358 12.7706 104.207 12.7706C110.594 12.7706 113.981 16.6706 113.981 23.3236V36.3236H109.594V23.7059C109.594 19.4236 107.593 16.7471 103.36 16.7471C99.204 16.7471 96.1255 19.8824 96.1255 24.0118V36.3236H91.8157V36.4Z" fill="#2D2A27"/>
</g>
<mask id="mask4_9_705" style="mask-type:luminance" maskUnits="userSpaceOnUse" x="0" y="0" width="152" height="52">
<path d="M152 0H0V52H152V0Z" fill="white"/>
</mask>
<g mask="url(#mask4_9_705)">
<path d="M136.3 13.2294H141.071L129.681 41.447C127.988 45.6529 125.679 47.5647 122.37 47.5647C120.753 47.5647 119.137 47.0294 117.829 46.2647L119.445 42.6705C120.292 43.2058 121.292 43.4353 122.139 43.4353C123.755 43.4353 124.832 42.5941 125.91 39.9941L127.218 36.9353L117.213 13.2294H121.985L126.679 24.6235C127.834 27.4529 128.45 29.0588 129.527 32.1941H129.604C130.528 29.5176 131.374 27.2235 132.298 24.7L136.3 13.2294Z" fill="#2D2A27"/>
</g>
<mask id="mask5_9_705" style="mask-type:luminance" maskUnits="userSpaceOnUse" x="0" y="0" width="152" height="52">
<path d="M152 0H0V52H152V0Z" fill="white"/>
</mask>
<g mask="url(#mask5_9_705)">
<path d="M143.072 34.0294C143.072 32.4235 144.227 31.2765 145.843 31.2765C147.459 31.2765 148.691 32.4235 148.691 34.0294C148.691 35.6353 147.536 36.7824 145.843 36.7824C144.227 36.7824 143.072 35.6353 143.072 34.0294Z" fill="#2D2A27"/>
</g>
</g>
<defs>
<clipPath id="clip0_9_705">
<rect width="152" height="52" fill="white"/>
</clipPath>
</defs>
</svg>
